<?xml version="1.0" standalone="no"?>
<!DOCTYPE svg PUBLIC "-//W3C//DTD SVG 20010904//EN"
 "http://www.w3.org/TR/2001/REC-SVG-20010904/DTD/svg10.dtd">
<svg version="1.0" xmlns="http://www.w3.org/2000/svg"
 width="426.000000pt" height="426.000000pt" viewBox="0 0 426.000000 426.000000"
 preserveAspectRatio="xMidYMid meet">
<metadata>
Created by potrace 1.11, written by Peter Selinger 2001-2013
</metadata>
<g transform="translate(0.000000,426.000000) scale(0.100000,-0.100000)"
fill="#000000" stroke="none">
<path d="M2265 3191 c2 -3 94 -51 205 -106 l202 -100 54 59 c30 33 52 62 49
65 -3 3 -20 10 -38 16 -18 6 -33 18 -35 29 -2 11 -10 26 -17 33 -15 15 -55 18
-55 4 0 -11 -311 -12 -325 -1 -12 9 -46 9 -40 1z"/>
<path d="M2807 3189 c8 -8 16 -8 30 0 16 9 14 10 -11 11 -22 0 -27 -3 -19 -11z"/>
<path d="M860 3173 c-14 -3 -29 -9 -35 -14 -13 -13 -14 -89 0 -81 5 3 1 -4 -9
-16 -11 -12 -15 -22 -11 -22 5 0 73 25 152 56 119 46 142 59 132 70 -8 10 -36
14 -108 13 -53 -1 -107 -4 -121 -6z"/>
<path d="M3059 3177 c-3 -11 -7 -57 -4 -57 1 0 96 -25 210 -55 113 -30 211
-55 216 -55 15 0 10 19 -10 39 -11 11 -17 22 -14 24 2 3 -11 18 -31 33 -23 19
-31 31 -23 36 20 12 0 20 -23 8 -12 -6 -29 -8 -38 -4 -54 23 -185 37 -214 22
-9 -4 -28 -4 -42 2 -14 5 -26 8 -27 7z"/>
<path d="M1303 3147 c-13 -7 -23 -14 -23 -18 0 -9 87 -69 94 -64 3 3 4 2 1 -2
-3 -3 25 -27 60 -53 l66 -47 205 90 c141 62 200 93 187 97 -36 12 -567 9 -590
-3z"/>
<path d="M1860 3035 c-151 -67 -274 -126 -273 -130 1 -4 119 -94 263 -200
l263 -192 51 5 51 4 196 201 197 202 -232 117 c-127 64 -233 117 -236 116 -3
0 -129 -55 -280 -123z"/>
<path d="M982 3021 l-193 -75 7 -141 c4 -77 8 -142 10 -144 2 -2 140 57 307
131 l303 134 -109 79 c-60 44 -114 83 -120 86 -7 3 -99 -28 -205 -70z"/>
<path d="M2810 3015 c-35 -35 -62 -66 -59 -69 9 -8 691 -347 693 -344 3 4 35
322 33 324 -7 4 -579 154 -589 154 -8 0 -42 -29 -78 -65z"/>
<path d="M627 3049 c-9 -5 -22 -7 -29 -3 -7 4 -8 3 -4 -5 5 -7 16 -9 29 -5 19
6 18 3 -8 -24 -24 -25 -32 -29 -48 -20 -14 7 -17 7 -13 -1 4 -6 2 -11 -3 -11
-6 0 -11 -5 -11 -11 0 -6 7 -8 16 -5 9 3 12 2 9 -5 -4 -6 -13 -8 -21 -5 -7 3
-18 -3 -24 -13 -8 -15 7 -12 88 19 75 29 98 42 100 58 4 23 -32 49 -43 32 -3
-5 -11 -10 -16 -10 -6 0 -7 5 -4 10 8 12 5 12 -18 -1z"/>
<path d="M524 2992 c4 -7 3 -12 -3 -12 -6 0 -15 -10 -22 -21 -15 -29 8 -22 28
8 11 16 11 23 2 29 -8 4 -9 3 -5 -4z"/>
<path d="M3613 2993 c-17 -6 -17 -23 0 -23 8 0 14 7 14 15 0 8 -1 15 -1 14 -1
0 -7 -3 -13 -6z"/>
<path d="M435 2910 c-3 -6 1 -7 9 -4 18 7 21 14 7 14 -6 0 -13 -4 -16 -10z"/>
<path d="M487 2828 c-144 -56 -205 -84 -197 -92 14 -14 13 -31 -2 -18 -10 8
-14 3 -15 -20 -3 -37 -11 -47 -23 -28 -6 10 -10 3 -15 -23 -4 -20 -11 -34 -16
-31 -5 3 -9 0 -9 -6 0 -6 -4 -9 -9 -6 -5 4 -7 -4 -3 -16 3 -14 1 -19 -6 -14
-6 3 -13 -3 -17 -14 -3 -11 -13 -20 -21 -20 -8 0 -13 -3 -12 -7 1 -5 -3 -18
-10 -30 l-13 -23 148 0 c81 0 219 3 307 7 l158 6 -6 156 c-8 178 -15 261 -25
261 -3 -1 -100 -37 -214 -82z"/>
<path d="M3556 2888 c-2 -7 -9 -69 -16 -138 -6 -69 -13 -140 -17 -157 -4 -29
-2 -34 22 -43 32 -12 537 -1 529 12 -3 4 2 8 10 8 22 0 20 17 -3 25 -11 3 -29
20 -40 38 -11 18 -21 26 -21 19 0 -10 -4 -10 -19 0 -11 7 -17 16 -15 20 3 4
-2 8 -11 8 -21 0 -85 67 -85 89 0 14 -2 14 -10 1 -8 -13 -10 -12 -10 3 0 9 -6
16 -12 15 -8 -2 -12 5 -10 17 2 16 1 17 -7 6 -8 -12 -12 -12 -25 2 -12 11 -13
17 -3 20 6 3 2 6 -10 6 -13 1 -23 6 -23 11 0 6 -7 10 -15 10 -8 0 -12 6 -9 13
3 9 -12 13 -63 12 -38 0 -83 4 -101 8 -24 6 -33 5 -36 -5z"/>
<path d="M2595 2797 c-47 -51 -128 -134 -178 -185 l-92 -92 420 6 c231 4 466
9 523 13 l103 6 -345 172 -344 172 -87 -92z"/>
<path d="M1270 2774 c-118 -52 -240 -107 -270 -121 -30 -14 -61 -27 -69 -29
-8 -1 -17 -7 -20 -12 -3 -6 -17 -12 -31 -13 -17 -3 -26 -11 -28 -27 -3 -16 -8
-22 -18 -18 -9 3 -12 1 -9 -4 3 -6 1 -10 -4 -10 -6 0 -11 -11 -11 -26 l0 -25
263 7 c144 3 266 10 272 15 13 13 102 11 111 -2 4 -7 53 -9 158 -4 83 4 192 8
241 9 50 2 91 7 91 12 3 14 -398 304 -409 297 -6 -3 -7 -1 -4 4 5 9 -33 44
-45 43 -2 -1 -100 -44 -218 -96z"/>
<path d="M156 2585 c-3 -9 -6 -22 -5 -28 0 -7 5 -1 10 12 5 13 8 26 5 28 -2 2
-6 -3 -10 -12z"/>
<path d="M3684 2463 l-71 -4 -103 -212 c-57 -117 -132 -273 -167 -347 l-64
-135 68 66 c37 36 202 193 366 348 163 156 297 285 297 287 0 4 -210 2 -326
-3z"/>
<path d="M3209 2456 c-3 -3 -89 -6 -192 -7 l-186 -1 -19 -57 c-11 -31 -66
-186 -122 -346 -56 -159 -109 -310 -116 -335 l-14 -44 32 30 c18 17 214 194
436 393 221 200 402 364 402 366 0 5 -216 6 -221 1z"/>
<path d="M2669 2446 c-2 -2 -113 -6 -245 -7 l-242 -3 33 -90 c17 -50 78 -227
135 -393 57 -167 107 -303 110 -303 4 0 70 180 147 400 l140 400 -37 0 c-20 0
-39 -2 -41 -4z"/>
<path d="M1548 2423 c-43 -3 -58 -8 -58 -19 0 -19 344 -928 347 -917 5 17 203
927 203 935 0 8 -372 8 -492 1z"/>
<path d="M943 2413 c-68 -2 -123 -5 -123 -7 0 -5 502 -891 526 -928 13 -21 32
-38 41 -38 9 0 14 -3 10 -6 -11 -11 58 -71 283 -249 124 -98 233 -185 243
-194 17 -14 16 -10 -3 39 -12 30 -35 91 -52 135 -16 44 -35 89 -42 100 -7 11
-15 32 -18 46 -2 14 -96 269 -209 567 l-204 542 -165 -2 c-91 -1 -220 -4 -287
-5z"/>
<path d="M475 2400 c-27 -4 -54 -5 -59 -2 -5 3 -6 0 -2 -6 4 -7 2 -12 -3 -12
-6 0 -11 5 -11 10 0 6 -47 10 -121 10 l-122 0 454 -362 c250 -199 459 -361
466 -361 7 0 10 -4 7 -9 -3 -4 2 -8 10 -8 8 0 20 -8 25 -18 6 -11 26 -31 46
-47 l37 -27 -31 53 c-17 30 -124 219 -238 421 l-208 368 -100 -1 c-55 -1 -122
-5 -150 -9z"/>
<path d="M3318 2244 c-180 -161 -200 -181 -179 -169 9 5 12 3 9 -6 -3 -8 -11
-15 -19 -15 -31 -3 -33 -5 -19 -14 21 -13 6 -23 -41 -29 -12 -2 -124 -105
-121 -113 1 -4 -2 -7 -7 -6 -12 4 -296 -254 -293 -266 2 -6 0 -8 -3 -4 -4 4
-35 -17 -68 -47 -33 -30 -64 -55 -69 -55 -4 0 -8 -10 -8 -23 0 -13 -4 -27 -9
-32 -8 -8 -123 -324 -232 -633 l-18 -52 302 287 c166 157 340 323 387 368 47
45 111 106 143 135 31 29 57 58 57 63 0 6 52 119 116 251 188 387 243 506 239
506 -3 0 -78 -66 -167 -146z"/>
<path d="M2042 2048 c-40 -183 -90 -420 -112 -526 l-39 -193 84 -222 c78 -206
87 -225 127 -259 24 -21 48 -38 54 -38 10 0 257 677 257 704 0 12 -281 833
-292 854 -4 7 -40 -137 -79 -320z"/>
<path d="M4001 2270 c-2 -3 -4 -12 -6 -20 -2 -8 -7 -24 -11 -35 -8 -19 -7 -19
10 -3 10 11 16 27 13 40 -2 13 -5 21 -6 18z"/>
</g>
</svg>
